<svg width="1337" height="650" viewBox="0 0 1337 650" fill="none" xmlns="http://www.w3.org/2000/svg">
<g clip-path="url(#clip0_223_4293)">
<path d="M69.2854 308.174C69.2854 308.174 104.493 325.778 271.449 286.486C308.805 277.649 333.556 272.403 356.934 275.924C356.934 275.924 377.601 297.577 331.443 317.434C285.286 337.291 220.644 384.822 220.644 384.822C220.644 384.822 127.378 408.763 118.541 408.059C109.704 407.355 71.574 412.108 50.3788 377.992C29.1837 343.875 69.2854 308.174 69.2854 308.174Z" fill="url(#paint0_linear_223_4293)"/>
<path d="M79.391 308.174C79.391 308.174 114.599 326.024 281.555 286.486C318.664 277.684 343.661 272.403 367.004 275.923C367.004 275.923 387.706 297.576 341.514 317.434C295.321 337.291 230.75 384.821 230.75 384.821C230.75 384.821 137.484 408.763 128.647 408.059C119.81 407.355 81.6796 412.108 60.4492 377.991C39.2189 343.875 79.391 308.174 79.391 308.174Z" fill="#232428"/>
<path opacity="0.43" d="M173.43 360.281C74.3546 385.243 77.312 361.865 77.312 361.865C77.312 361.865 66.0455 344.05 55.2367 324.862C46.2587 338.417 38.3369 358.45 50.4836 377.99C71.6084 412.107 109.95 407.389 118.646 408.058C127.342 408.727 220.749 384.821 220.749 384.821C220.749 384.821 272.293 346.796 316.233 324.545C280.426 332.079 229.833 346.092 173.43 360.281Z" fill="url(#paint1_linear_223_4293)"/>
<path d="M344.294 -0.000183105C344.294 -0.000183105 424.603 90.6601 265.288 208.888C94.4589 335.637 50.2378 409.573 120.442 408.024C120.442 408.024 21.8603 432.212 6.72086 337.96C-2.29235 282.437 34.183 249.096 79.742 211.423C79.742 211.423 237.579 98.7579 344.294 -0.000183105Z" fill="url(#paint2_linear_223_4293)"/>
<path d="M260.781 481.292C260.781 481.292 206.772 573.642 306.305 646.98C306.502 647.138 306.639 647.359 306.692 647.607C306.745 647.854 306.71 648.112 306.593 648.336C306.477 648.561 306.286 648.738 306.054 648.837C305.821 648.937 305.562 648.952 305.319 648.882C284.092 641.403 263.529 632.158 243.846 621.244C181.599 586.775 229.552 515.373 260.781 481.292Z" fill="url(#paint3_linear_223_4293)"/>
<path d="M260.78 481.292C260.78 481.292 206.771 573.642 306.304 646.98C306.501 647.138 306.638 647.359 306.691 647.607C306.743 647.854 306.708 648.112 306.592 648.336C306.476 648.561 306.285 648.738 306.053 648.837C305.82 648.937 305.56 648.952 305.318 648.882C289.545 643.741 252.506 629.693 236.803 614.977C184.942 566.319 229.55 515.373 260.78 481.292Z" fill="url(#paint4_linear_223_4293)"/>
<path d="M415.062 324.123C411.541 280.818 352.744 275.36 352.744 275.36C388.163 294.76 278.807 318.068 198.991 407.496C142.341 470.87 164.91 535.864 164.91 535.864C182.514 595.259 243.634 621.172 243.634 621.172C145.862 480.235 420.941 403.94 415.062 324.123Z" fill="url(#paint5_linear_223_4293)"/>
<path d="M415.062 324.123C413.407 280.219 352.744 275.36 352.744 275.36C388.163 294.76 278.807 318.068 198.991 407.496C142.341 470.87 164.91 535.864 164.91 535.864C182.514 595.259 243.634 621.172 243.634 621.172C145.862 480.235 413.829 407.073 415.062 324.123Z" fill="url(#paint6_linear_223_4293)"/>
<path style="mix-blend-mode:color-burn" d="M174.629 197.481C358.626 66.1554 344.296 -0.000183105 344.296 -0.000183105C249.974 89.9911 79.744 211.423 79.744 211.423C32.2838 250.786 -2.29037 282.437 6.72285 337.995C22.0031 432.247 120.444 408.059 120.444 408.059C5.27933 427.916 -15.4229 333.102 174.629 197.481Z" fill="url(#paint7_linear_223_4293)"/>
<path opacity="0.25" d="M344.294 -0.000183105C344.294 -0.000183105 358.624 66.1554 174.628 197.481C29.2542 301.203 7.56618 382.005 56.646 404.644C71.1006 409.696 86.4451 411.698 101.712 410.524C107.996 410.033 114.249 409.198 120.443 408.024C50.2381 409.467 94.4592 335.637 265.288 208.888C424.603 90.6601 344.294 -0.000183105 344.294 -0.000183105Z" fill="url(#paint8_linear_223_4293)"/>
<path d="M372.005 334.476C404.678 310.394 387.919 290.22 386.089 288.354C375.962 281.737 364.552 277.334 352.606 275.433C388.025 294.832 278.669 318.14 198.853 407.568C142.204 470.942 164.772 535.936 164.772 535.936C182.376 595.331 243.497 621.244 243.497 621.244C62.8803 515.445 336.622 360.53 372.005 334.476Z" fill="url(#paint9_linear_223_4293)"/>
<path style="mix-blend-mode:soft-light" opacity="0.17" d="M352.745 275.36C364.691 277.262 376.101 281.665 386.228 288.282C387.918 290.148 404.677 310.322 372.145 334.404C336.937 360.528 58.7947 510.197 243.918 621.243C146.005 480.411 413.972 407.073 415.204 324.123C413.408 280.219 352.745 275.36 352.745 275.36Z" fill="url(#paint10_linear_223_4293)"/>
</g>
<path d="M716.773 281.504H680.584C679.923 276.822 678.573 272.663 676.535 269.027C674.497 265.337 671.881 262.197 668.686 259.608C665.491 257.019 661.8 255.036 657.614 253.659C653.483 252.282 648.994 251.594 644.146 251.594C635.388 251.594 627.759 253.769 621.259 258.121C614.76 262.418 609.719 268.697 606.139 276.959C602.559 285.167 600.768 295.137 600.768 306.869C600.768 318.933 602.559 329.068 606.139 337.275C609.775 345.483 614.842 351.679 621.342 355.866C627.842 360.052 635.361 362.145 643.898 362.145C648.691 362.145 653.125 361.512 657.201 360.245C661.332 358.978 664.995 357.133 668.19 354.709C671.385 352.23 674.029 349.228 676.122 345.703C678.27 342.178 679.757 338.157 680.584 333.64L716.773 333.805C715.837 341.572 713.496 349.063 709.75 356.279C706.06 363.44 701.075 369.857 694.795 375.53C688.571 381.149 681.135 385.611 672.487 388.916C663.894 392.165 654.171 393.79 643.32 393.79C628.227 393.79 614.732 390.375 602.834 383.545C590.991 376.715 581.627 366.827 574.742 353.883C567.911 340.938 564.496 325.267 564.496 306.869C564.496 288.417 567.967 272.718 574.907 259.774C581.847 246.829 591.267 236.969 603.165 230.194C615.063 223.364 628.448 219.949 643.32 219.949C653.125 219.949 662.214 221.326 670.586 224.08C679.014 226.834 686.478 230.855 692.977 236.143C699.477 241.376 704.765 247.793 708.841 255.394C712.972 262.996 715.616 271.699 716.773 281.504ZM768.414 391.477H730.076L788.491 222.262H834.596L892.929 391.477H854.591L812.204 260.93H810.882L768.414 391.477ZM766.017 324.964H856.574V352.891H766.017V324.964ZM886.174 251.759V222.262H1025.15V251.759H973.343V391.477H937.98V251.759H886.174ZM1048.04 391.477V222.262H1162.06V251.759H1083.81V292.08H1156.19V321.577H1083.81V361.98H1162.39V391.477H1048.04ZM1190.5 391.477V222.262H1226.28V296.872H1228.51L1289.4 222.262H1332.28L1269.49 298.029L1333.03 391.477H1290.23L1243.88 321.907L1226.28 343.389V391.477H1190.5Z" fill="white"/>
<defs>
<linearGradient id="paint0_linear_223_4293" x1="49.3772" y1="378.348" x2="358.364" y2="275.442" gradientUnits="userSpaceOnUse">
<stop stop-color="#262262"/>
<stop offset="0.5" stop-color="#662D91"/>
<stop offset="0.67" stop-color="#642C8E"/>
<stop offset="0.8" stop-color="#5C2A85"/>
<stop offset="0.91" stop-color="#4E2675"/>
<stop offset="1" stop-color="#3E2262"/>
</linearGradient>
<linearGradient id="paint1_linear_223_4293" x1="51.1787" y1="383.759" x2="307.555" y2="298.374" gradientUnits="userSpaceOnUse">
<stop stop-color="#92278F" stop-opacity="0"/>
<stop offset="0.05" stop-color="#942A8F" stop-opacity="0.16"/>
<stop offset="0.13" stop-color="#982D90" stop-opacity="0.38"/>
<stop offset="0.22" stop-color="#9B3090" stop-opacity="0.58"/>
<stop offset="0.32" stop-color="#9D3390" stop-opacity="0.73"/>
<stop offset="0.43" stop-color="#9F3591" stop-opacity="0.85"/>
<stop offset="0.55" stop-color="#A03691" stop-opacity="0.94"/>
<stop offset="0.71" stop-color="#A13791" stop-opacity="0.99"/>
<stop offset="1" stop-color="#A13791"/>
</linearGradient>
<linearGradient id="paint2_linear_223_4293" x1="-12.3686" y1="285.544" x2="399.403" y2="148.406" gradientUnits="userSpaceOnUse">
<stop stop-color="#1C75BC"/>
<stop offset="0.5" stop-color="#00AEEF"/>
<stop offset="1" stop-color="#4FD5DF"/>
</linearGradient>
<linearGradient id="paint3_linear_223_4293" x1="279.104" y1="657.865" x2="224.358" y2="493.484" gradientUnits="userSpaceOnUse">
<stop stop-color="#DA1C5C"/>
<stop offset="0.5" stop-color="#9E1F63"/>
<stop offset="1" stop-color="#9E1F63"/>
</linearGradient>
<linearGradient id="paint4_linear_223_4293" x1="279.938" y1="657.587" x2="225.192" y2="493.206" gradientUnits="userSpaceOnUse">
<stop stop-color="#DA1C5C"/>
<stop offset="1" stop-color="#351840"/>
</linearGradient>
<linearGradient id="paint5_linear_223_4293" x1="151.987" y1="497.027" x2="441.934" y2="400.462" gradientUnits="userSpaceOnUse">
<stop stop-color="#EE2A7B"/>
<stop offset="0.5" stop-color="#DA1C5C"/>
<stop offset="1" stop-color="#9E1F63"/>
</linearGradient>
<linearGradient id="paint6_linear_223_4293" x1="151.987" y1="497.027" x2="442.335" y2="400.328" gradientUnits="userSpaceOnUse">
<stop stop-color="#EE2A7B" stop-opacity="0"/>
<stop offset="0.02" stop-color="#EE2B7B" stop-opacity="0.09"/>
<stop offset="0.07" stop-color="#EF2D7A" stop-opacity="0.3"/>
<stop offset="0.12" stop-color="#F02F79" stop-opacity="0.49"/>
<stop offset="0.18" stop-color="#F13078" stop-opacity="0.65"/>
<stop offset="0.23" stop-color="#F13278" stop-opacity="0.77"/>
<stop offset="0.29" stop-color="#F13378" stop-opacity="0.87"/>
<stop offset="0.35" stop-color="#F23377" stop-opacity="0.94"/>
<stop offset="0.42" stop-color="#F23477" stop-opacity="0.99"/>
<stop offset="0.5" stop-color="#F23477"/>
<stop offset="0.56" stop-color="#F13477" stop-opacity="0.98"/>
<stop offset="0.63" stop-color="#EC3376" stop-opacity="0.93"/>
<stop offset="0.69" stop-color="#E53174" stop-opacity="0.84"/>
<stop offset="0.76" stop-color="#DB2E71" stop-opacity="0.72"/>
<stop offset="0.82" stop-color="#CE2B6E" stop-opacity="0.57"/>
<stop offset="0.89" stop-color="#BD276A" stop-opacity="0.37"/>
<stop offset="0.96" stop-color="#AB2266" stop-opacity="0.15"/>
<stop offset="1" stop-color="#9E1F63" stop-opacity="0"/>
</linearGradient>
<linearGradient id="paint7_linear_223_4293" x1="-12.3666" y1="285.544" x2="394.327" y2="150.097" gradientUnits="userSpaceOnUse">
<stop stop-color="#D9E8BC"/>
<stop offset="1" stop-color="#4FD5DF"/>
</linearGradient>
<linearGradient id="paint8_linear_223_4293" x1="155.892" y1="426.073" x2="247.272" y2="-19.9086" gradientUnits="userSpaceOnUse">
<stop stop-color="#1C75BC" stop-opacity="0"/>
<stop offset="0.06" stop-color="#458EC5" stop-opacity="0.18"/>
<stop offset="0.15" stop-color="#7DB0D2" stop-opacity="0.43"/>
<stop offset="0.24" stop-color="#ABCCDC" stop-opacity="0.63"/>
<stop offset="0.32" stop-color="#D0E2E4" stop-opacity="0.79"/>
<stop offset="0.39" stop-color="#EAF2EA" stop-opacity="0.91"/>
<stop offset="0.45" stop-color="#F9FCEE" stop-opacity="0.98"/>
<stop offset="0.5" stop-color="#FFFFEF"/>
<stop offset="0.59" stop-color="#FDFFEF" stop-opacity="0.99"/>
<stop offset="0.66" stop-color="#F6FDEE" stop-opacity="0.95"/>
<stop offset="0.72" stop-color="#ECFAED" stop-opacity="0.89"/>
<stop offset="0.77" stop-color="#DCF7EC" stop-opacity="0.8"/>
<stop offset="0.82" stop-color="#C8F2EA" stop-opacity="0.69"/>
<stop offset="0.87" stop-color="#AFECE8" stop-opacity="0.55"/>
<stop offset="0.92" stop-color="#92E5E5" stop-opacity="0.38"/>
<stop offset="0.96" stop-color="#71DDE2" stop-opacity="0.19"/>
<stop offset="1" stop-color="#4FD5DF" stop-opacity="0"/>
</linearGradient>
<linearGradient id="paint9_linear_223_4293" x1="151.991" y1="497.028" x2="427.14" y2="405.392" gradientUnits="userSpaceOnUse">
<stop stop-color="#EE2A7B" stop-opacity="0"/>
<stop offset="0.25" stop-color="#D32673" stop-opacity="0.34"/>
<stop offset="0.49" stop-color="#BC236C" stop-opacity="0.62"/>
<stop offset="0.7" stop-color="#AC2167" stop-opacity="0.83"/>
<stop offset="0.88" stop-color="#A21F64" stop-opacity="0.95"/>
<stop offset="1" stop-color="#9E1F63"/>
</linearGradient>
<linearGradient id="paint10_linear_223_4293" x1="163.046" y1="493.344" x2="442.337" y2="400.328" gradientUnits="userSpaceOnUse">
<stop stop-color="#EE2A7B" stop-opacity="0"/>
<stop offset="0.03" stop-color="#F0478D" stop-opacity="0.14"/>
<stop offset="0.08" stop-color="#F472A8" stop-opacity="0.34"/>
<stop offset="0.13" stop-color="#F798BF" stop-opacity="0.51"/>
<stop offset="0.18" stop-color="#F9B8D3" stop-opacity="0.66"/>
<stop offset="0.24" stop-color="#FBD1E3" stop-opacity="0.79"/>
<stop offset="0.3" stop-color="#FDE6EF" stop-opacity="0.88"/>
<stop offset="0.36" stop-color="#FEF4F8" stop-opacity="0.95"/>
<stop offset="0.42" stop-color="#FFFCFD" stop-opacity="0.99"/>
<stop offset="0.5" stop-color="white"/>
<stop offset="0.56" stop-color="#FDFBFC" stop-opacity="0.98"/>
<stop offset="0.62" stop-color="#F9F0F5" stop-opacity="0.93"/>
<stop offset="0.69" stop-color="#F1DEE8" stop-opacity="0.85"/>
<stop offset="0.75" stop-color="#E5C4D6" stop-opacity="0.74"/>
<stop offset="0.82" stop-color="#D7A3BF" stop-opacity="0.59"/>
<stop offset="0.88" stop-color="#C57AA2" stop-opacity="0.41"/>
<stop offset="0.95" stop-color="#B14B82" stop-opacity="0.2"/>
<stop offset="1" stop-color="#9E1F63" stop-opacity="0"/>
</linearGradient>
<clipPath id="clip0_223_4293">
<rect width="419.889" height="649.832" fill="white"/>
</clipPath>
</defs>
</svg>
